<?xml version="1.0" encoding="iso-8859-1"?>
<!-- Generator: Adobe Illustrator 19.0.0, SVG Export Plug-In . SVG Version: 6.00 Build 0)  -->
<svg version="1.1" id="Layer_1" xmlns="http://www.w3.org/2000/svg" xmlns:xlink="http://www.w3.org/1999/xlink" x="0px" y="0px"
	 viewBox="0 0 512 512" style="enable-background:new 0 0 512 512;" xml:space="preserve">
<path style="fill:#FF6243;" d="M256.001,0h-0.003C146.45,0,57.325,89.138,57.325,198.704c0,77.385,32.292,155.541,93.387,226.02
	c45.458,52.438,90.65,82.241,92.551,83.484c3.868,2.529,8.301,3.792,12.733,3.792h0.005c4.43,0,8.864-1.264,12.73-3.792
	c0.984-0.642,24.407-16.05,54.309-43.905c35.15-32.745,64.002-68.2,85.754-105.384c30.445-52.042,45.881-105.947,45.881-160.216
	C454.677,89.139,365.55,0.002,256.001,0z M256.001,245.223c-25.665,0-46.545-20.88-46.545-46.545s20.88-46.545,46.545-46.545
	s46.545,20.88,46.545,46.545S281.666,245.223,256.001,245.223z"/>
<path style="fill:#FF0C38;" d="M243.264,508.208c3.868,2.529,8.301,3.792,12.733,3.792h0.003V245.223
	c-25.665,0-46.545-20.88-46.545-46.545s20.88-46.545,46.545-46.545V0h-0.003C146.45,0,57.325,89.138,57.325,198.704
	c0,77.385,32.292,155.541,93.387,226.02C196.171,477.162,241.362,506.965,243.264,508.208z"/>
<g>
</g>
<g>
</g>
<g>
</g>
<g>
</g>
<g>
</g>
<g>
</g>
<g>
</g>
<g>
</g>
<g>
</g>
<g>
</g>
<g>
</g>
<g>
</g>
<g>
</g>
<g>
</g>
<g>
</g>
</svg>
